<?xml version="1.0"?>
<mxfile host="Electron" modified="2022-07-12T06:29:16.744Z" agent="5.0 (X11; Linux x86_64) AppleWebKit/537.36 (KHTML, like Gecko) draw.io/18.1.3 Chrome/100.0.4896.143 Electron/18.2.3 Safari/537.36" etag="rCw6SXKWdezZZIFNd4sM" version="18.1.3">
  <diagram id="Ir3tHIhi2Y-gT3ULe_FY" name="Page-1">
    <mxGraphModel dx="2" dy="1" grid="1" gridSize="10" guides="1" tooltips="1" connect="1" arrows="1" fold="1" page="1" pageScale="1" pageWidth="850" pageHeight="1100" math="0" shadow="0">
      <root>
        <mxCell id="0"/>
        <mxCell id="1" parent="0"/>
        <mxCell id="j4JbCFdpCV6ZWKuhYXve-19" value="" style="endArrow=none;html=1;rounded=1;strokeWidth=6;fillColor=#f5f5f5;strokeColor=#666666;" parent="1" edge="1">
          <mxGeometry width="50" height="50" relative="1" as="geometry">
            <mxPoint x="180" y="90" as="sourcePoint"/>
            <mxPoint x="190" y="80" as="targetPoint"/>
            <Array as="points">
              <mxPoint x="180" y="80"/>
            </Array>
          </mxGeometry>
        </mxCell>
        <mxCell id="j4JbCFdpCV6ZWKuhYXve-20" value="" style="endArrow=none;html=1;rounded=1;strokeWidth=6;fillColor=#f5f5f5;strokeColor=#666666;" parent="1" edge="1">
          <mxGeometry width="50" height="50" relative="1" as="geometry">
            <mxPoint x="220" y="90" as="sourcePoint"/>
            <mxPoint x="210" y="80" as="targetPoint"/>
            <Array as="points">
              <mxPoint x="220" y="80"/>
            </Array>
          </mxGeometry>
        </mxCell>
        <mxCell id="j4JbCFdpCV6ZWKuhYXve-21" value="" style="endArrow=none;html=1;rounded=1;strokeWidth=6;fillColor=#f5f5f5;strokeColor=#666666;" parent="1" edge="1">
          <mxGeometry width="50" height="50" relative="1" as="geometry">
            <mxPoint x="190" y="120" as="sourcePoint"/>
            <mxPoint x="180" y="110" as="targetPoint"/>
            <Array as="points">
              <mxPoint x="180" y="120"/>
            </Array>
          </mxGeometry>
        </mxCell>
        <mxCell id="j4JbCFdpCV6ZWKuhYXve-22" value="" style="endArrow=none;html=1;rounded=1;strokeWidth=6;fillColor=#f5f5f5;strokeColor=#666666;" parent="1" edge="1">
          <mxGeometry width="50" height="50" relative="1" as="geometry">
            <mxPoint x="210" y="120" as="sourcePoint"/>
            <mxPoint x="220" y="110" as="targetPoint"/>
            <Array as="points">
              <mxPoint x="220" y="120"/>
            </Array>
          </mxGeometry>
        </mxCell>
        <mxCell id="j4JbCFdpCV6ZWKuhYXve-23" value="" style="endArrow=none;html=1;curved=1;strokeWidth=6;fillColor=#dae8fc;strokeColor=#6c8ebf;" parent="1" edge="1">
          <mxGeometry width="50" height="50" relative="1" as="geometry">
            <mxPoint x="200.00000000000006" y="100" as="sourcePoint"/>
            <mxPoint x="200.00000000000006" y="100" as="targetPoint"/>
            <Array as="points">
              <mxPoint x="190" y="110"/>
              <mxPoint x="180" y="100"/>
              <mxPoint x="190" y="90"/>
              <mxPoint x="210" y="110"/>
              <mxPoint x="220" y="100"/>
              <mxPoint x="210" y="90"/>
            </Array>
          </mxGeometry>
        </mxCell>
      </root>
    </mxGraphModel>
  </diagram>
</mxfile>
